<svg xmlns="http://www.w3.org/2000/svg" width="1240" height="1754" viewBox="0 0 1240 1754">
<rect width="1240" height="1754" fill="#fdfcf9"/><style>text{font-family:'Yu Gothic','Noto Sans JP',sans-serif;fill:#27352f}.h{font-size:34px;font-weight:700}.s{font-size:18px}.l{font-size:21px;font-weight:700}.n{fill:none;stroke:#748a80;stroke-width:2}.p{fill:#edf3ef}.c{fill:none;stroke:#61796e;stroke-width:2}</style>
<text x="75" y="85" class="s" letter-spacing="5">LUMIERE ESTHETIC</text><text x="75" y="135" class="h">フェイシャル カウンセリングカルテ</text><text x="940" y="115" class="s">No. __________</text><line x1="75" y1="160" x2="1165" y2="160" class="n"/>
<text x="75" y="215" class="l">基本情報</text><rect x="75" y="235" width="1090" height="190" rx="8" class="n"/><text x="100" y="280" class="s">お名前</text><line x1="190" y1="290" x2="620" y2="290" class="n"/><text x="665" y="280" class="s">来店日</text><line x1="745" y1="290" x2="1125" y2="290" class="n"/><text x="100" y="345" class="s">生年月日</text><line x1="190" y1="355" x2="500" y2="355" class="n"/><text x="545" y="345" class="s">電話番号</text><line x1="635" y1="355" x2="1125" y2="355" class="n"/><text x="100" y="400" class="s">ご住所</text><line x1="190" y1="410" x2="1125" y2="410" class="n"/>
<rect x="75" y="465" width="1090" height="155" rx="8" class="p"/><text x="100" y="510" class="l">本日のお悩み・ご希望</text><text x="100" y="555" class="s">□ 乾燥　□ くすみ　□ 毛穴　□ しわ　□ たるみ　□ ニキビ　□ 敏感肌　□ その他</text><line x1="100" y1="595" x2="1125" y2="595" class="n"/>
<text x="75" y="675" class="l">お肌・体調について</text><rect x="75" y="700" width="1090" height="350" rx="8" class="n"/><text x="100" y="750" class="s">アレルギーはありますか　　□ なし　□ あり（　　　　　　　　　　　　　　　　　　　　）</text><text x="100" y="815" class="s">化粧品で赤み・かゆみが出たこと　□ なし　□ あり（　　　　　　　　　　　　　　　　）</text><text x="100" y="880" class="s">現在治療中・服薬中ですか　　□ いいえ　□ はい（　　　　　　　　　　　　　　　　　）</text><text x="100" y="945" class="s">妊娠・授乳中ですか　　　　　□ いいえ　□ はい</text><text x="100" y="1010" class="s">特に注意してほしいこと</text><line x1="315" y1="1020" x2="1125" y2="1020" class="n"/>
<text x="75" y="1110" class="l">施術記録</text><rect x="75" y="1135" width="1090" height="360" rx="8" class="n"/><text x="100" y="1185" class="s">施術メニュー</text><line x1="235" y1="1195" x2="1125" y2="1195" class="n"/><text x="100" y="1250" class="s">使用化粧品</text><line x1="235" y1="1260" x2="1125" y2="1260" class="n"/><text x="100" y="1315" class="s">肌の状態・施術内容・反応</text><line x1="100" y1="1365" x2="1125" y2="1365" class="n"/><line x1="100" y1="1425" x2="1125" y2="1425" class="n"/><text x="75" y="1560" class="l">お好み・次回への申し送り</text><rect x="75" y="1580" width="1090" height="105" rx="8" class="n"/>
<text x="75" y="1720" class="s">担当者 ____________________　　次回予約 ______年____月____日</text>
</svg>
